<?xml version="1.0" encoding="utf-8"?>
<!-- Generator: Adobe Illustrator 19.0.0, SVG Export Plug-In . SVG Version: 6.00 Build 0)  -->
<svg version="1.1" id="Layer_1" xmlns="http://www.w3.org/2000/svg" xmlns:xlink="http://www.w3.org/1999/xlink" x="0px" y="0px"
	 viewBox="0 0 612 792" style="enable-background:new 0 0 612 792;" xml:space="preserve">
<g id="XMLID_31_">
	<path id="XMLID_35_" d="M1236.7,476c-5.3,0-10.7-0.4-16-1.1c-30.5-4.2-56.2-18.8-76.2-43.3c-13.6-16.7-22-36.1-24.8-57.8
		c-1.5-11.9-1.4-23.9-1.2-35.6c0.1-6.6,0.2-13.5,0-20.2c0-1.3,0.2-2.1,0.7-2.7c0.5-0.5,1.4-0.8,2.6-0.8c37.5,0.1,70.7,0.1,101.5,0
		c1.3,0,2.1,0.2,2.6,0.8c0.7,0.7,0.8,1.8,0.7,3c-0.1,12,0,24.2,0,36l0,3.2c0,5.9,3.5,9.9,8.9,10.2c6.5,0.4,10.2-2.5,11.1-8.8
		c0.2-1.1,0.1-2.3,0.1-3.5l0-0.8l0-23.7c0-42.2,0-85.9-0.1-128.9c0-1.7,0.2-3.1,1-3.9c0.7-0.7,1.9-1,3.8-1c20,0.2,39.6,0.1,56.2,0
		c1.6,0,2.8,0.1,3.5,0.9c0.6,0.6,0.9,1.7,0.9,3.3c0,19.1,0,38.6,0,57.4c0,33.7,0,68.5-0.2,102.8c-0.1,13.8-4.7,27.2-13.7,39.8
		c-12.6,17.7-29.9,28.2-51.4,31.4c-15.9,2.3-31.1-0.4-45.1-8.1c-17.3-9.5-29.4-23.5-36.1-41.8c-2.5-6.8-3.8-14.3-4-22.1l1,0
		c0.1,7.8,1.5,15.1,3.9,21.8c6.6,18,18.6,31.9,35.6,41.2c13.9,7.6,28.8,10.3,44.5,8c21.3-3.1,38.3-13.5,50.8-30.9
		c8.8-12.4,13.4-25.6,13.5-39.2c0.3-34.3,0.2-69.1,0.2-102.8c0-18.8,0-38.3,0-57.5c0-1.3-0.2-2.1-0.6-2.6c-0.5-0.5-1.5-0.6-2.8-0.6
		c-16.5,0.1-36.2,0.2-56.2,0c-1.6,0-2.6,0.2-3.1,0.7c-0.5,0.5-0.7,1.5-0.7,3.2c0.1,43,0.1,86.7,0.1,128.9l0,23.7l0,0.8
		c0,1.2,0,2.4-0.2,3.6c-0.9,6.7-5.1,10-12.1,9.6c-5.9-0.4-9.9-4.9-9.9-11.2l0-3.2c0-11.8,0-24,0-36c0-1.1-0.1-1.9-0.5-2.3
		c-0.3-0.3-0.9-0.5-1.9-0.5c-30.8,0.1-64,0.1-101.5,0c0,0,0,0,0,0c-1,0-1.6,0.2-1.9,0.5c-0.3,0.3-0.4,0.9-0.4,1.9
		c0.2,6.7,0.1,13.6,0.1,20.2c-0.1,11.6-0.3,23.7,1.2,35.5c2.8,21.4,11,40.7,24.5,57.2c19.9,24.3,45.3,38.8,75.6,42.9
		c15.1,2.1,30.3,1.2,45.4-2.7c23.1-5.9,43.3-18.6,59.8-37.6c9.4-10.7,16.5-23.3,21.3-37.4c4.6-13.7,6.8-28.5,6.7-45.4
		c-0.1-21.6-0.1-43.6-0.1-64.9c0-8.9,0-17.9,0-26.8v-17.9c0-27.5,0-55,0-82.5c0-0.3,0-0.6,0-0.9c0.1-0.8,0.1-1.6-0.3-2
		c-0.3-0.3-0.9-0.5-1.8-0.5c0,0,0,0,0,0c-31.4,0.1-64.8,0.1-101.9,0l0-1c37.1,0.1,70.4,0.1,101.9,0c0,0,0,0,0,0c1.2,0,2,0.3,2.5,0.8
		c0.7,0.7,0.6,1.8,0.6,2.7c0,0.3,0,0.5,0,0.8c0,27.5,0,55,0,82.5v17.9c0,8.9,0,17.9,0,26.8c0,21.3-0.1,43.3,0.1,64.9
		c0.1,17-2.1,32-6.8,45.8c-4.8,14.2-12,26.9-21.4,37.7c-16.7,19.2-37,31.9-60.3,37.9C1256.7,474.7,1246.7,476,1236.7,476z"/>
</g>
<g id="XMLID_28_">
	<path id="XMLID_36_" d="M1233.2,464.3c-6.4,0-12.8-0.6-19.1-1.8c-22.2-4.3-41.4-15.4-57-33c-13-14.3-21.5-31.4-25.3-50.8
		c-0.7-3.5-1.2-7.1-1.6-11c-0.9-8.6-0.9-17.3-0.8-25.7c0-4.5,0.1-9.1,0-13.6c0-1.1,0.2-1.9,0.7-2.4c0.6-0.6,1.5-0.8,2.7-0.8
		c0,0,0,0,0,0c21.9,0,43.3,0.1,64.7,0l14.6,0.1c0.8,0,1.6,0.3,2.2,0.9c0.6,0.6,0.9,1.4,0.9,2.2l-0.2,8.5c0,0,0,4.9,0,6.6
		c0.1,22.1,5.2,27.6,7.3,29.9c0.2,0.2,0.3,0.3,0.4,0.5c0.1,0.1,0.8,0.6,1.3,0.9c0.1,0.1,0.2,0.1,0.3,0.2c0.3,0.2,0.7,0.5,2.3,1.2
		c3.8,1.6,4.4,1.7,8.7,1.9l0.5,0c5.3,0.3,8.5-1,13-3.7c0.6-0.4,3.1-2.5,3.7-3.4c5.7-8.2,5.5-18.4,5.2-29.1c-0.1-2.2-0.1-4.5-0.1-6.8
		c0-39.4,0-71.2,0-100l0.1-6.8l0.1-17.3c0-1.7,1.4-3.1,3.1-3.1l23.2-0.2l5.8-0.1l8.5,0c0.8,0,1.6,0.3,2.2,0.9
		c0.6,0.6,0.9,1.4,0.9,2.2l0,5.3l0,0c0,0,0.1,3.5,0.1,6.7c0,15,0,29.9,0,44.9c0,26.4,0,53.8-0.1,80.6c0,7.5-0.9,15.2-2.6,22.7
		c-1.2,5.2-2.8,9.9-4.9,14.3c-6.3,13.3-16.1,23.5-29.2,30.1c-4.1,2.1-8.5,3.7-13,4.9c-13.9,3.6-27.7,2.4-41.1-3.8
		c-16.7-7.7-28.2-19.8-34.3-36.1c-2.3-6.1-3.6-12.9-3.9-20l1,0c0.3,7.1,1.6,13.7,3.8,19.7c6,16,17.3,28,33.8,35.5
		c13.2,6.1,26.8,7.3,40.4,3.7c4.4-1.1,8.7-2.7,12.8-4.8c12.9-6.5,22.6-16.5,28.8-29.6c2.1-4.4,3.7-9,4.8-14.1
		c1.7-7.5,2.6-15,2.6-22.5c0.1-26.9,0.1-54.2,0.1-80.6c0-15,0-29.9,0-44.9c0-3.2-0.1-6.7-0.1-6.7l0-5.3c0-0.6-0.2-1.1-0.6-1.5
		c-0.4-0.4-0.9-0.6-1.5-0.6l-8.5,0l-5.8,0.1l-23.2,0.2c-1.2,0-2.1,1-2.1,2.1l-0.1,17.3l-0.1,6.8c0,28.9,0,60.6,0,100
		c0,2.2,0.1,4.5,0.1,6.7c0.3,10.9,0.5,21.2-5.4,29.7c-0.7,1-3.3,3.2-4,3.6c-3.9,2.3-7.5,4.1-13.6,3.8l-0.5,0c-4.4-0.2-5.1-0.3-9-2
		c-1.8-0.8-2.1-1-2.5-1.3c-0.1-0.1-0.1-0.1-0.2-0.2c-0.3-0.2-1.3-0.8-1.6-1.1c-0.1-0.1-0.3-0.3-0.4-0.5c-2.2-2.4-7.5-8.1-7.6-30.6
		c0-1.7,0-6.7,0-6.7l0.2-8.5c0-0.6-0.2-1.1-0.6-1.5c-0.4-0.4-0.9-0.6-1.5-0.6l-14.6-0.1c-21.4,0.1-42.8,0-64.7,0c0,0,0,0,0,0
		c-1.1,0-1.7,0.1-2,0.5c-0.3,0.3-0.4,0.8-0.4,1.7c0.1,4.5,0.1,9.1,0,13.6c-0.1,8.4-0.1,17.1,0.8,25.6c0.4,3.9,1,7.5,1.6,11
		c3.7,19.2,12.1,36.1,25,50.3c15.5,17.5,34.5,28.5,56.4,32.7c11,2.1,22.4,2.4,33.8,0.7c26.6-1.9,49.6-13.3,68.5-33.9
		c9-9.9,15.9-21.5,20.4-34.5c2-5.7,3.5-11.7,4.6-18c0.9-5.2,1.4-9.4,1.5-13.5c0.1-3.6,0.2-7.2,0.2-11c-0.1-20.6,0-41.6,0-61.9
		c0-7.9,0-15.9,0-23.8c0-31.3,0-62.6,0-93.8V168c0-1.2-0.9-2.1-2.1-2.1h-5.4c-16.6,0.1-33.4,0.1-49.7,0.1c-11.7,0-23.5,0-35.2,0l0-1
		c11.7,0,23.5,0,35.2,0c16.3,0,33.1,0,49.7-0.1h5.4c1.7,0,3.1,1.4,3.1,3.1v3.9c0,31.3,0,62.6,0,93.8c0,7.9,0,15.9,0,23.8
		c0,20.3,0,41.2,0,61.9c0,3.7,0,7.4-0.2,11c-0.1,4.1-0.6,8.4-1.5,13.6c-1.1,6.3-2.7,12.4-4.7,18.1c-4.6,13.2-11.5,24.9-20.6,34.9
		c-19.1,20.7-42.3,32.3-69.1,34.2C1243.1,463.9,1238.1,464.3,1233.2,464.3z"/>
</g>
<g id="XMLID_14_">
	<path id="XMLID_33_" d="M1237.6,454.5c-2.6,0-5.2-0.1-7.9-0.3c-23.1-1.7-43.4-10.7-60.2-26.9c-14.6-14.1-24.1-32.1-28-53.6
		c-1.6-8.7-1.5-17.6-1.5-26.2c0-2.9,0-6,0-9c0-1,0.2-1.7,0.7-2.2c0.7-0.7,1.7-0.7,2.8-0.7l5.6,0c17.2,0,35,0,52.4,0
		c1.3,0,2.2,0.2,2.8,0.8c0.7,0.7,0.8,1.8,0.7,2.9c-0.1,6.3-0.1,12.5,0,17.7c0.2,12.7,5.8,22.5,16.2,28.3c10.2,5.6,21.6,5.6,31.3-0.1
		c9.8-5.8,15.8-16.2,15.8-27.1c0-27.2,0-54.4,0-81.6l0-34c0-1.9,0-3.8,0-5.8c0-4.8,0-9.7-0.1-14.5c0-1.4,0.2-2.3,0.8-2.9
		c0.6-0.6,1.4-0.8,2.8-0.8c4.5,0.1,9.3,0.3,14.1,0c1.8-0.1,3,0.2,3.7,0.9c0.8,0.7,1.1,1.9,1.1,3.9c-0.1,39.1-0.1,78.9-0.1,117.3
		l0,15.4c0,5.4-0.4,9.8-1.3,13.8c-3.1,13.4-10.5,24.3-22.1,32.4c-14.8,10.4-31.4,12.6-48.1,6.6c-22-8-34.6-24.7-36.3-48.4l1-0.1
		c1.7,23.2,14,39.6,35.6,47.5c16.3,5.9,32.7,3.7,47.2-6.4c11.3-7.9,18.6-18.6,21.7-31.8c0.9-3.9,1.3-8.2,1.3-13.6l0-15.4
		c0-38.5,0-78.2,0.1-117.3c0-1.7-0.2-2.6-0.8-3.1c-0.5-0.5-1.4-0.7-2.9-0.6c-4.8,0.3-9.7,0.2-14.2,0c-1,0-1.7,0.1-2.1,0.5
		c-0.4,0.4-0.5,1-0.5,2.1c0.1,4.9,0.1,9.8,0.1,14.6c0,1.9,0,3.8,0,5.8l0,34c0,27.2,0,54.4,0,81.6c0,11.3-6.3,22.1-16.3,28
		c-10,5.9-21.7,5.9-32.2,0.1c-10.8-6-16.6-16-16.7-29.2c-0.1-5.3-0.1-11.5,0-17.8c0-1.1-0.1-1.8-0.5-2.1c-0.3-0.3-1-0.5-2-0.5
		c-17.5,0.1-35.3,0.1-52.4,0l-5.6,0c-1,0-1.8,0-2.1,0.4c-0.3,0.3-0.4,0.8-0.4,1.5c0,3,0,6,0,9c-0.1,8.6-0.1,17.4,1.5,26
		c3.9,21.2,13.3,39.1,27.8,53c16.6,16,36.7,25,59.5,26.6c29.9,2.2,55.9-8,77.1-30.2c12.4-13,20.5-29.3,24-48.4
		c0.7-4,1.4-8.2,1.4-12.5l0-29.2c0-50.1,0-101.9,0.1-152.8c0-1.6-0.2-2.6-0.7-3.1c-0.5-0.5-1.5-0.7-3.2-0.7
		c-12.4,0.1-25,0.1-37.2,0.1c-13,0-26.5,0-39.7,0.1l0-1c13.2-0.1,26.7-0.1,39.7-0.1c12.2,0,24.8,0,37.2-0.1c1.8,0,3.1,0.2,3.9,1
		c0.7,0.7,1,1.9,1,3.8c-0.1,50.9-0.1,102.7-0.1,152.8l0,29.2c0,4.3-0.7,8.6-1.4,12.6c-3.5,19.3-11.7,35.8-24.3,48.9
		C1288.1,444.2,1264.5,454.5,1237.6,454.5z"/>
</g>
<g id="XMLID_2_">
	<path id="XMLID_15_" d="M112.1,307.7c-6.4,0-12.8-0.6-19.1-1.8c-22.2-4.3-41.4-15.4-57-33c-13-14.3-21.5-31.4-25.3-50.8
		c-0.7-3.5-1.2-7.2-1.6-11c-0.9-8.6-0.9-17.3-0.8-25.7c0-4.5,0.1-9.1,0-13.6c0-1.1,0.2-1.9,0.7-2.4c0.6-0.6,1.5-0.8,2.7-0.8
		c0,0,0,0,0,0c21.9,0,43.3,0.1,64.7,0l14.6,0.1c0.8,0,1.6,0.3,2.2,0.9s0.9,1.4,0.9,2.2l-0.2,8.5c0,0,0,4.9,0,6.6
		c0.1,22.1,5.2,27.6,7.3,29.9c0.2,0.2,0.3,0.3,0.4,0.5c0.1,0.1,0.8,0.6,1.3,0.9c0.1,0.1,0.2,0.1,0.3,0.2c0.3,0.2,0.7,0.5,2.3,1.2
		c3.8,1.6,4.4,1.7,8.7,1.9l0.5,0c5.3,0.3,8.5-1,13-3.7c0.6-0.4,3.1-2.5,3.7-3.4c5.7-8.2,5.5-18.4,5.2-29.1c-0.1-2.2-0.1-4.5-0.1-6.8
		c0-40.3,0-71.1,0-100l0.1-6.8l0.1-17.3c0-1.7,1.4-3.1,3.1-3.1l23.2-0.2l5.8-0.1l8.5,0c0.8,0,1.6,0.3,2.2,0.9
		c0.6,0.6,0.9,1.4,0.9,2.2l0,5.3l0,0c0,0,0.1,3.5,0.1,6.7c0,14.9,0,29.9,0,44.8c0,26.4,0,53.8-0.1,80.7c0,7.5-0.9,15.2-2.6,22.7
		c-1.2,5.2-2.8,9.9-4.9,14.3c-6.3,13.3-16.1,23.5-29.2,30.1c-4.1,2.1-8.5,3.7-13,4.9c-13.9,3.6-27.7,2.4-41.1-3.8
		c-16.7-7.7-28.2-19.8-34.3-36.1c-2.3-6.1-3.6-12.9-3.9-20l1,0c0.3,7.1,1.6,13.7,3.8,19.7c6,16,17.3,28,33.8,35.5
		c13.2,6.1,26.8,7.3,40.4,3.7c4.4-1.1,8.7-2.7,12.8-4.8c12.9-6.5,22.6-16.5,28.8-29.6c2.1-4.3,3.7-9,4.8-14.1
		c1.7-7.5,2.6-15,2.6-22.5c0.1-26.9,0.1-54.2,0.1-80.7c0-14.9,0-29.9,0-44.8c0-3.2-0.1-6.7-0.1-6.7l0-5.3c0-0.6-0.2-1.1-0.6-1.5
		c-0.4-0.4-0.9-0.6-1.5-0.6l-8.5,0l-5.8,0.1l-23.2,0.2c-1.2,0-2.1,1-2.1,2.1l-0.1,17.3l-0.1,6.8c0,28.9,0,59.7,0,100
		c0,2.2,0.1,4.5,0.1,6.7c0.3,10.9,0.5,21.2-5.4,29.7c-0.7,1-3.3,3.2-4,3.6c-3.9,2.3-7.5,4.1-13.6,3.8l-0.5,0c-4.4-0.2-5.1-0.3-9-2
		c-1.8-0.8-2.1-1-2.5-1.3c-0.1-0.1-0.1-0.1-0.2-0.2c-0.3-0.2-1.3-0.8-1.6-1.1c-0.1-0.1-0.3-0.3-0.4-0.5c-2.2-2.4-7.5-8.1-7.6-30.6
		c0-1.7,0-6.7,0-6.7l0.2-8.5c0-0.6-0.2-1.1-0.6-1.5c-0.4-0.4-0.9-0.6-1.5-0.6l-14.6-0.1c-21.5,0.1-42.9,0-64.7,0c0,0,0,0,0,0
		c-1.1,0-1.7,0.1-2,0.5c-0.3,0.3-0.4,0.8-0.4,1.7c0.1,4.5,0.1,9.1,0,13.6c-0.1,8.4-0.1,17.1,0.8,25.6c0.4,3.8,1,7.5,1.6,11
		c3.7,19.2,12.1,36.1,25,50.3c15.5,17.5,34.5,28.5,56.4,32.7c11,2.1,22.4,2.4,33.8,0.7c26.6-1.9,49.6-13.3,68.5-33.9
		c9-9.9,15.9-21.5,20.4-34.5c2-5.7,3.5-11.7,4.6-18c0.9-5.1,1.4-9.4,1.5-13.5c0.1-3.5,0.2-7.2,0.2-11c-0.1-20.7-0.1-41.8,0-62.1
		c0-7.9,0-15.7,0-23.6c0-31.3,0-62.6,0-93.8v-3.9c0-1.2-0.9-2.1-2.1-2.1h-5.4c-16.6,0.1-33.4,0.1-49.7,0.1c-11.7,0-23.5,0-35.2,0
		l0-1c11.7,0,23.5,0,35.2,0c16.3,0,33.1,0,49.7-0.1h5.4c1.7,0,3.1,1.4,3.1,3.1v3.9c0,31.3,0,62.6,0,93.8c0,7.9,0,15.7,0,23.6
		c0,20.4,0,41.4,0,62.1c0,3.7,0,7.4-0.2,11c-0.1,4.1-0.6,8.4-1.5,13.6c-1.1,6.3-2.7,12.4-4.7,18.1c-4.6,13.2-11.5,24.9-20.6,34.9
		c-19.1,20.7-42.3,32.3-69.1,34.2C122,307.3,117.1,307.7,112.1,307.7z"/>
</g>
</svg>
