<?xml version="1.0" encoding="UTF-8" standalone="no"?>
<!DOCTYPE svg PUBLIC "-//W3C//DTD SVG 20010904//EN"
              "http://www.w3.org/TR/2001/REC-SVG-20010904/DTD/svg10.dtd">

<svg xmlns="http://www.w3.org/2000/svg"
     width="43.3494mm" height="43.3494mm"
     viewBox="0 0 512 512">
  <path id="Selection #1"
        fill="none" stroke="black" stroke-width="1"
        d="M 266.00,35.00
           C 266.00,35.00 266.00,64.00 266.00,64.00
             266.00,64.00 374.00,64.00 374.00,64.00
             376.19,64.00 379.84,63.79 381.69,65.02
             385.23,67.38 384.00,80.73 384.00,85.00
             384.00,85.00 384.00,151.00 384.00,151.00
             384.00,151.00 384.00,276.00 384.00,276.00
             384.00,276.00 384.00,318.00 384.00,318.00
             383.97,338.13 375.80,364.76 365.55,382.00
             362.39,387.31 358.62,392.10 354.88,397.00
             351.47,401.47 349.20,404.92 344.99,408.83
             320.60,431.45 293.30,444.65 260.00,447.09
             260.00,447.09 252.00,447.92 252.00,447.92
             252.00,447.92 244.00,447.09 244.00,447.09
             215.35,444.99 189.12,435.19 167.00,416.56
             154.77,406.26 144.57,393.73 136.45,380.00
             133.26,374.60 131.50,369.75 129.20,364.00
             117.14,333.85 119.00,316.36 119.00,285.00
             119.00,285.00 207.00,285.00 207.00,285.00
             207.00,305.59 203.25,330.94 220.09,346.41
             228.91,354.51 237.94,358.94 250.00,359.82
             255.17,360.19 263.22,358.26 268.00,356.27
             285.92,348.79 295.97,333.28 296.00,314.00
             296.00,314.00 296.00,124.00 296.00,124.00
             296.00,124.00 325.00,124.00 325.00,124.00
             325.00,124.00 325.00,315.00 325.00,315.00
             324.87,325.80 322.55,336.34 317.75,346.00
             313.39,354.77 308.36,362.23 301.00,368.83
             293.95,375.15 285.89,380.46 277.00,383.77
             240.37,397.42 201.63,379.46 184.76,345.00
             180.43,336.16 178.03,324.82 178.00,315.00
             178.00,315.00 148.00,315.00 148.00,315.00
             148.03,325.32 151.43,343.40 155.20,353.00
             179.52,414.89 253.93,436.88 309.00,401.30
             319.01,394.83 329.21,384.79 335.98,375.00
             342.12,366.10 347.47,356.43 350.56,346.00
             357.09,323.94 355.00,293.35 355.00,270.00
             355.00,270.00 355.00,94.00 355.00,94.00
             355.00,94.00 266.00,94.00 266.00,94.00
             266.00,94.00 266.00,309.00 266.00,309.00
             265.99,314.09 266.00,319.75 262.57,323.84
             257.02,330.61 246.34,330.41 240.79,323.84
             237.04,319.32 237.01,315.48 237.00,310.00
             237.00,310.00 237.00,256.00 237.00,256.00
             237.00,256.00 89.00,256.00 89.00,256.00
             89.00,256.00 89.00,319.00 89.00,319.00
             89.01,326.06 89.83,329.25 90.72,336.00
             94.38,363.81 104.99,390.41 121.76,413.00
             130.19,424.35 142.71,436.11 154.00,444.63
             160.69,449.67 167.59,454.73 175.00,458.68
             220.85,483.12 279.83,483.10 326.00,459.63
             333.92,455.60 345.96,447.35 353.00,441.79
             362.58,434.24 374.48,422.86 381.57,413.00
             395.72,393.33 402.57,378.28 408.63,355.00
             408.63,355.00 411.72,343.00 411.72,343.00
             415.12,322.78 414.00,276.68 414.00,254.00
             414.00,254.00 414.00,35.00 414.00,35.00
             414.00,35.00 266.00,35.00 266.00,35.00 Z" />
</svg>
